# xmcd
#
# Track frame offsets:
# 150
# 16794
# 31320
# 43844
# 54906
# 74075
# 90905
# 106021
# 123568
# 135269
# 149532
# 162267
# 174757
# 187863
# 199203
# 215676
# 229117
# 245657
# 258392
# 268424
# 284768
# 298461
# 309897
#
# Disc length: 4373 seconds
#
#
# Revision: 3
# Processed by: cddbd v1.5.2PL0 Copyright (c) Steve Scherf et al.
# Submitted via: FreeRIP 2.51 
#
DISCID=58111317
DTITLE=Любими български - Хора и Ръченици
DYEAR=1900
DGENRE=
TTITLE0=Северна България - Дунавско хоро
TTITLE1=Тракия - Първомайска ръченица
TTITLE2=Шоплук - Ситно свогенско хоро
TTITLE3=Северна България - Празнично хоро
TTITLE4=Македония - Мъжко хоро
TTITLE5=Северна България - Върбишка ръченица
TTITLE6=Северна България - Еленино хоро
TTITLE7=Тракия - Бачковско хоро
TTITLE8=Северна България - Ръченица
TTITLE9=Тракия - Червенска ръченица
TTITLE10=Северна България - Черкезката
TTITLE11=Добруджа - Данец
TTITLE12=Северна България - Ситно крайдунавско хоро
TTITLE13=Шоплук - Огнено хоро
TTITLE14=Тракия - Керановско хоро
TTITLE15=Македония - Македонско хоро
TTITLE16=Родопи - Сворнато хоро
TTITLE17=Северна България - Право северняшко хоро
TTITLE18=Северна България - Сватбарска ръченица
TTITLE19=Северна България - Свищовско хоро
TTITLE20=Странджа - Жоркината
TTITLE21=Северозападна България - Северняшко влашко хоро
TTITLE22=Северна България - Дайчово хоро
EXTD=GR 019638 006-1
EXTT0=муз.: Дико Илиев, изп.: Духов оркестър, диригент: Христо Тонев
EXTT1=изп.: Първомайска група, ръководител: Стефан Филипов
EXTT2=муз. и изп.: Йордан Йорданов - акордеон, обр. и диригент: Христофор Раданов, съпр. оркестър
EXTT3=муз.: Димитър Кротев, изп.: оркестър Веселие - гр. Габрово, ръководител: Димитър Кротев
EXTT4=муз. и изп.: Андрей Зарев - акордеон, обработка и диригент: Димитър Пенев, съпр. оркестър
EXTT5=изп.: Димитър Пасков - кларинет, обработка и диригент: Иван Шибилев, съпр. оркестър
EXTT6=муз.: Иван Чукоев, изп.: оркестър Чанове - гр. Русе, ръководител: Иван Чукоев
EXTT7=изп.: Първомайска група, ръководител: Стефан Филипов
EXTT8=муз.: Дико Илиев, изп.: Духов оркестър, диригент: Христо Тонев
EXTT9=изп.: Леновската група, ръководител: Никола Янков, обработкаи диригент: Коста Колев
EXTT10=изп.: Русенската народна група, обработка и диригент: ХристоТодоров
EXTT11=изп.: оркестър Бисери - гр. Добрич, обработка и ръководител:Живко Желев
EXTT12=изп.: оркестър Чанове - гр. Русе, ръководител: Иван Чукоев, обработка и диригент: Христо Тодоров
EXTT13=муз.: Румен Сираков, изп.: Румен Сираков - тамбура и Георги Емилов - акордеон, с оркестър
EXTT14=изп.: Леновската група, ръководител: Никола Янков, обработкаи диригент: Коста Колев
EXTT15=изп.: Ибро Лолов и Диди Кушлева - акордеон, обработка: Диди Кушлева
EXTT16=изп.: Стефан Захманов - кабагайда
EXTT17=изп.: Русенската народна група, обработка и диригент: ХристоТодоров
EXTT18=муз.: Дико Илиев, изп.: Духов оркестър, диригент: Христо Тонев
EXTT19=муз. и изп.: Любчо Николов - акордеон, обработка и диригент:Христофор Раданов, съпр. оркестър
EXTT20=изп.: Странджанската група
EXTT21=муз.: Димитър Кротев, изп.: оркестър Веселие - гр. Габрово, ръководител: Димитър Кротев
EXTT22=муз.: Дико Илиев, изп.: Духов оркестър, диригент: Христо Тонев
PLAYORDER=
